<?xml version="1.0" encoding="utf-8"?>
<!-- Generator: Adobe Illustrator 18.1.0, SVG Export Plug-In . SVG Version: 6.00 Build 0)  -->
<svg version="1.1" id="圖層_1" xmlns="http://www.w3.org/2000/svg" xmlns:xlink="http://www.w3.org/1999/xlink" x="0px" y="0px"
	 viewBox="0 0 960 560" enable-background="new 0 0 960 560" xml:space="preserve">
<path display="none" fill="none" d="M411.3,328.6c2.5,5.9-0.6,24.8-2.8,32.1c-5.3-7.3-11-14.8-17.2-21.2c-5.1,2.7-22.7,15.1-22,20.5
	c0.3-7.7-4.9-17.9-7.1-25.3c-1.9-6.3-3.9-13.6-6.7-19.3c-3.7,3.3-8,11.5-7.6,16.9c-4.6-9.2-6.5-26.7-3.7-36.4
	c-3.6,0.2-6.8,2.1-9.4,4.6c-2.1-6-1.8-23.7,2.9-28.4c-3.4,3.1-8.3,5.3-9.8,9.9c1.1-8.4,3.3-16.5,5.4-24.8c1.3-5,2.2-15.5,7.5-17.8
	c-4.3,2.2-9.4,4.7-12.2,8.8c1.4-8,4.9-18.6,11.5-24c-6.1,2.7-14.1,3.8-19.1,8.8c3.7-7.1,5.5-14.8,12.4-19.9c0.3-0.2,0.3-0.2,0,0
	c-3.9,0.6-7.3,2.9-10.9,4.2c2.8-7.9,6.7-21.3,13.8-24.7c-6.6-0.1-17.7,4.6-23.1,8.1c-0.2,0.3-0.2,0.3,0.1,0
	c0.7-28.2,21.7-45.4,42.9-60.4c8.5-6,16.7-9.7,26.7-13.1c8.5-3,15.7-7.1,24.9-6.3c11.7,1.1,24.4,5.4,35.1,10.1
	c7.7,3.4,16.7,4.8,23.5,10c7.3,5.6,12.4,15.9,17.3,23.5c4.7,7.3,10.5,14.1,15.2,21c4.5,6.5,2.4,12.5,2,20.2
	c-0.4,7.9-1.5,15.1-2.6,22.8c-2,13.6-3.6,28.6-11.9,40.5c0.7-5.5-1.6-11.8-4.8-16.1c3.9,10.4,2.7,23.9-1.2,34c0-4.4-2.4-9.1-5-12.7
	c4,6.1,1.3,21.1-1.8,26.6c-1-5.8-2.8-13.5-7-17.8c4.9,10.9,3.1,24.9,7.4,35.7c-8.5-5.9-15.5-11-25.2-14.3
	c-2.9,4.8-3.3,13.9-2.9,19.7c-3.1-3.4-7.9-8.5-11.7-10.7c-0.5,10,2.8,23.2-0.9,32.3c-8.1-4.4-13.6-11.8-21.2-16.5"/>
<path display="none" fill="none" d="M366.5,265.8c-4.7,8.6-7.7,22.9,3.6,28.8c4.7,2.5,20.6,2.4,26.7,1.5c6.1-0.9,17.2-10,21.2-15.8
	c7-10.3-0.8-12.3-8-18.6c-0.5,2.3-1.5,4.2-3.1,6c-2-1.5-4.3-3.5-6.6-4.6c-1.2,2.2-2.1,4.7-3,6.7c-3-1.5-6-4-8.7-6
	c-0.6,1.4-2,2.3-2.4,3.8c-1.4-2-2.4-4.2-3.3-6.4c-0.7,2-2.5,3.7-3.4,5.3c-1-1.7-2.1-4-2.8-6c-0.8,2.2-1.9,4.4-3.5,6
	c-0.6-1.6-2.5-3.1-3.4-4.6c-1.5,2.3-2.1,5.2-2.2,7.9c-1.4-0.8-1.5-1.9-1.9-3.4"/>
<path display="none" fill="none" d="M383.7,174.1c-9.3-0.1-26.4,9.3-30.2,17.2c-4.7,9.9-6.6,23.8-7.1,34.5c-0.7,16-2.1,42,8.3,54.9
	c-0.9-10.3,2.8-29.3,12.4-34.9c8.7-5.1,22.2-3.5,31.7-2c9.9,1.5,20,1.6,26.1,11.2c5.7,9,2.1,19.5,12.6,23.8c2,0.8,4.1,2,6,2.9
	c5.8-10.7,18.9-13.8,20.9-26.1c1.4-8.7,0.5-23.4,4.9-30.9c11.5-2.4,2.8-12.6-0.6-18.9c-2.4-4.5-5.6-9.4-7.1-14.3
	c-1.5-5-0.4-5.8,0.4-11c-7.9,2.3-18.1,6.5-25.1,10.8c0.6-7.2,2.1-17,3.9-23.8c-14.1,6.6-25,13.9-35.8,25.2c2-6.3,4.1-14.5,4.8-21.1
	c-7.5,5.3-14.5,11.1-21.2,17.2c-3.7,3.3-15.2,9.1-15.2,13.6c0.4-5,6.6-26.8,10.2-27.9c0.5,0.9-0.6,1.3-0.6,1.3"/>
<path fill="#FBEEDA" d="M350.8,188c13.1-12.7,26.4-16.3,40.1-18.7c25.3-4.6,56.7-3.5,75,17.2c17.6,20,16.8,56,4.8,78.6
	c-9.2,17.4-28.8,26.7-44.8,37c-21,13.5-57.5,14.7-72.2-7.8C335.8,266.9,335.1,209.1,350.8,188"/>
<g>
	<g>
		<g>
			<path fill="#FBC571" d="M359,170c-11.7-0.9-15.5,16.5-8,22c6.4,4.7,20.1,6.9,28,7c19.2,0.3,41.1-7.2,58-11.1
				c8.9,8.4,6.6,35.2,1.3,45.1c-3.7,6.8-8.6,9-15.3,11c-10,2.9-11.1,1.8-5.2,12c3.7,6.4,7.5,12.7,11.2,19c4.6,7.9,6,12.8,15,8.8
				c18.4-8.2,28-39.9,32.1-57.6c6.6-28.7-5.7-56.9-35-66.2c-18.1-5.8-35.5-3.7-54-0.8c-10.7,1.7-31.5,3.6-38,13.8"/>
			<path fill="#FBC571" d="M394,218c-0.5,3.8-3.6,17.5-0.3,20.3c2.3,2,12.2-1.5,15.1-2.5C407.7,228,401.5,217.7,394,218"/>
		</g>
		<path fill="#FBC571" d="M367,271c8.7-3,35-6.6,35.9,6.7c-3.2,6.6-37.2,8.1-24.9,17.5c10.1,7.7,37.4-2,44.3-11
			c11.6-15.2-3-26.1-18.2-25.2c-11,0.6-35.4-3-40,10"/>
	</g>
	<g>
		<path fill="#FBC571" d="M356,197c-5,12.5-6.8,31.5,0.2,43.8c4.7,8.3,5.8,9.5,3.8,19.4c-1.7,8.6-1.5,18.6-4.3,26.7
			c-9.5-13.3-12.3-29.5-13.8-45.6c-1.4-14.5-4.4-35.9,8.3-46.1c1.1,0.5,2.7,1.1,3.7,1.8"/>
	</g>
</g>
<g>
	<path fill="#42210B" stroke="#000000" stroke-width="2" stroke-miterlimit="10" d="M313.2,200.9
		C313.2,200.9,313.2,200.8,313.2,200.9C313.2,200.8,313.2,200.8,313.2,200.9C312.9,201.1,312.9,201.1,313.2,200.9z"/>
	<path fill="#42210B" stroke="#000000" stroke-width="2" stroke-miterlimit="10" d="M369.3,360c0-0.2,0-0.4,0-0.6
		C369.3,359.7,369.3,359.9,369.3,360z"/>
	<path fill="#42210B" stroke="#000000" stroke-width="2" stroke-miterlimit="10" d="M373.5,201.6c0,0.2-0.1,0.4-0.1,0.6
		C373.4,201.9,373.5,201.8,373.5,201.6z"/>
	<path fill="#42210B" stroke="#000000" stroke-width="2" stroke-miterlimit="10" d="M491.8,184.7c-4.8-6.9-3.3-12.8-8.1-20.1
		c-4.9-7.6-10-17.9-17.3-23.5c-6.8-5.2-15.8-6.6-23.5-10c-10.7-4.7-23.4-9-35.1-10.1c-9.2-0.9-16.4,3.3-24.9,6.3
		c-10,3.5-18.3,7.2-26.7,13.1c-21.2,15-42.2,32.2-42.9,60.3c5.4-3.5,16.5-8.2,23-8.1c-7.1,3.4-11.1,16.9-13.8,24.7
		c3.6-1.3,6.9-3.5,10.8-4.2c-6.8,5.1-8.6,12.9-12.3,19.9c5-5,13-6,19.1-8.8c-6.6,5.4-10.1,15.9-11.5,24c2.8-4.1,8-6.6,12.2-8.8
		c-5.3,2.3-6.2,12.8-7.5,17.8c-2.1,8.3-4.3,16.4-5.4,24.8c1.4-4.6,6.4-6.7,9.8-9.9c-4.7,4.7-5,22.4-2.9,28.4
		c2.6-2.5,5.8-4.4,9.4-4.6c-2.7,9.7-0.9,27.2,3.7,36.4c-0.5-5.5,3.8-13.6,7.6-16.9c2.7,5.6,4.8,12.9,6.7,19.3
		c2.2,7.2,7.1,17.1,7.1,24.7c0.5-5.6,17.1-17.3,22-20c6.2,6.4,11.9,13.9,17.2,21.2c2.1-7.4,5.3-26.2,2.8-32.1l0.7,0.7
		c7.7,4.7,13.1,12.1,21.2,16.5c3.8-9,0.4-22.3,0.9-32.3c3.7,2.2,8.5,7.3,11.7,10.7c-0.4-5.8,0-14.9,2.9-19.7
		c9.7,3.3,9.6,7.5,18.1,13.4c-4.2-10.7-2.5-24.8-7.4-35.7c4.2,4.3,6,11.9,7,17.8c3.2-5.5,5.8-20.5,1.8-26.6c2.6,3.5,5,8.2,5,12.7
		c3.9-10.2,5.1-23.7,1.2-34c3.2,4.3,5.5,10.6,4.8,16.1c8.3-11.9,9.9-26.9,11.9-40.5c1.1-7.6,2.2-14.9,2.6-22.8
		C494.2,197.2,496.3,191.2,491.8,184.7z M418.1,280.3c-4,5.9-15.2,15-21.2,15.8c-6.2,0.9-22,1-26.7-1.5c-10.8-5.7-8.5-19-4.2-27.7
		c0.3,1.2,0.6,2.2,1.8,3c0.1-2.7,0.7-5.6,2.2-7.9c0.9,1.6,2.8,3.1,3.4,4.6c1.5-1.7,2.7-3.8,3.5-6c0.7,2.1,1.7,4.3,2.8,6
		c0.9-1.7,2.7-3.4,3.4-5.3c0.8,2.2,1.9,4.4,3.3,6.4c0.4-1.5,1.8-2.4,2.4-3.8c2.6,2,5.7,4.4,8.7,6c1-2,1.9-4.5,3-6.7
		c2.2,1.2,4.6,3.1,6.6,4.6c1.6-1.8,2.6-3.7,3.1-6C417.3,268,425.1,270,418.1,280.3z M462.2,223.6c-4.4,7.5-3.5,22.2-4.9,30.9
		c-2,12.4-7.9,16.3-13.7,27c-1.9-0.8-4-2.1-6-2.9c-10.5-4.3-6.9-14.8-12.6-23.8c-6.1-9.5-16.2-9.6-26.1-11.2c-9.4-1.5-23-3.1-31.7,2
		c-9.6,5.6-13.3,24.6-12.4,34.9c-10.4-12.9-9-38.9-8.3-54.9c0.5-10.7,2.4-24.6,7.1-34.5c3.8-8,20.8-17.4,30.2-17.2l-0.1,0.2
		c0,0,0,0,0-0.1c-3.5,1.1-9.4,21.5-10.1,27.4c0.9-4.4,11.6-9.8,15.1-13c6.7-6.1,13.8-11.9,21.2-17.2c-0.7,6.6-2.8,14.7-4.8,21.1
		c10.8-11.3,21.7-18.6,35.8-25.2c-1.8,6.8-3.3,16.6-3.9,23.8c7-4.4,10.1-9.5,18-11.7c-0.8,5.2-1.9,6.1-0.4,11
		c1.5,4.9,4.7,9.8,7.1,14.3C465,211.1,473.7,221.3,462.2,223.6z"/>
</g>
<path d="M443,182.3c5.3,5.5,13.1,13.7,19.4,15.9c-7.6,0.8-11.5-5.1-17.9-5.7c-4.3-0.4-11.4,5.3-15.9,7.2
	c-14.2,6.1-21.8,7.7-33.3-2.2 M355.2,187.6c-3.5,1-6,4.6-8,7.6c4.7,1.9,13.1,4.2,17.2,7.6c2.6-3.4,7.9-7,10.9-7.1"/>
<path display="none" fill="none" stroke="#000000" stroke-width="5" stroke-miterlimit="10" d="M383,243c-3.2,3.7-12-1-15.9-1.7
	c1.8-7.2,9.3-23.5,13.2-29 M408.6,278.9c-4.4,2.2-12.8-7.3-18.5-8.5c-4-0.8-16.6,6.5-16.7,6.4"/>
<path display="none" d="M475.7,207.3c0.1-0.4,0.2-0.7,0.2-0.8l0-2l-2,0c-5.6,0-11.8,0.2-17.2,0.4c-3.3,0.1-6.2,0.2-8.4,0.2l-2.4,0.3
	c-1.1,0.1-2.4,0.1-3.4,0.2c-3.2,0.1-4.9,0.2-5.8,0.4c-5.5,0.2-9-0.2-12.7-0.6c-3.5-0.4-7.2-0.8-12.7-0.7c-1,0-2.2,0-3.6,0.1
	l-0.1-0.2c-0.1,0.1-0.2,0.1-0.3,0.2c-2.2,0.1-4.8,0.3-7.7,0.7l-0.4,0.1c-1.8,0.6-3,1.7-4,2.6c-0.5,0.5-1,0.9-1.4,1.2
	c-3.1,0.4-5.9,0.3-8.6,0.1c-1.4-0.1-2.6-0.1-4-0.1c-5.4-5.7-6.5-6.4-14.9-6.2c-0.2,0-0.4,0-0.6,0l0,0c0,0-0.1,0-0.1,0
	c-1,0-2.1,0-3.3-0.1c-4-0.1-8.5-0.3-12.4,1l-1.8-1.3c-2.4,3.5-3.7,8.9-4.2,14.1c-2.6,3.2-3.7,5.6-3.6,7.5l3.1-0.3
	c-0.1,3.1,0,5.6,0.1,7.1l0.1,1.6l1.6,0.3c3.7,0.6,7.3,0.5,10.7,0.3c4.1-0.2,8-0.3,11.9,0.7l1.3,0.4l0.8-1c3.8-4.8,7.4-12.2,9.6-17.8
	c1.5,0,3.1,0.2,4.7,0.3c2.8,0.3,5.8,0.6,8.6,0.1c0.2,1.1,0.3,2.4,0.5,3.7c0.4,4,0.9,8.2,2.9,10.9c2.8,3.8,6.6,4,10.9,4.2l0.4,0
	c2.4,0.1,4.8,0.2,7.3,0.2c6.2,0,12.6-0.4,19.3-1.1l1.4-0.2l0.3-1.4c0.3-1.4,0.5-2.6,0.8-3.8c2.1-10.2,2.3-11.6,12.4-12.2
	c8.5-0.5,17.5-0.9,24.8-1l1.6,0l0.4-1.5C476.4,211.7,476.3,209.4,475.7,207.3z M354,207.1c-0.6,0.6-1.2,1.1-1.9,1.7
	c-0.7,0.5-1.3,1.1-2,1.7c-0.4,0.4-0.8,0.7-1.2,1.1c0.3-1.2,0.6-2.3,0.9-3.3C351.1,207.7,352.5,207.3,354,207.1z M347.8,220
	c1.2-1.4,3-3.3,5.7-5.9c0.6-0.5,1.2-1,1.8-1.6c1.8-1.5,3.9-3.2,5.1-5.8c0.6,0,1.2,0,1.8,0.1c-0.2,0.4-0.4,0.8-0.5,1.2
	c-0.2,0.5-0.4,1.1-0.6,1.4c-0.7,1.2-1.6,2.4-2.5,3.6c-1.1,1.5-2.2,3-3.1,4.8c-2.3,4.4-3.8,8-4.7,11.5c-1,0-2.1-0.1-3.1-0.2
	C347.6,226.3,347.6,223.1,347.8,220z M376.9,211.6l-0.4,1.2c-1.9,5.1-5.2,12.2-8.7,17c-2.4-0.5-4.8-0.7-7.1-0.7
	c-1.6,0-3.1,0.1-4.6,0.1c0.8-2.7,2.1-5.6,3.9-9.1c0.7-1.4,1.7-2.7,2.7-4.1c1-1.3,1.9-2.6,2.8-4.1c0.3-0.6,0.6-1.2,0.9-1.9
	c0.3-0.8,0.9-2.2,1.3-2.5c0,0,0,0-0.1,0l-0.2-0.7c5.9-0.1,6.5,0.1,10.6,4.6L376.9,211.6z M424.5,209.3c-0.8,2.4-1.1,5.2-1.4,7.9
	c-0.2,1.4-0.3,2.6-0.5,3.7c-0.5,3-1,5.9-1,9.8c-1.2,0-2.4,0.1-3.5,0.1c0.3-1.6,0.5-3.3,0.8-5.1c0.8-5.8,1.7-11.8,4-16.6
	c0.3,0,0.5,0.1,0.8,0.1C423.8,209.2,424.2,209.3,424.5,209.3z M398,211c0.8-0.7,1.5-1.4,2.4-1.7c0.9-0.1,1.7-0.2,2.6-0.3
	c-1.8,2.2-3.4,4.7-4.6,6.8c-0.4,0.6-0.7,1.3-1,2c-0.2-1.8-0.4-3.5-0.9-4.9l-0.2-0.5C396.9,211.9,397.5,211.4,398,211z M407.6,230.7
	c-4.3-0.2-6.3-0.4-7.9-2.6c-0.3-0.4-0.5-0.9-0.8-1.5c1.3-1.4,1.9-3.4,2.5-5.2c0.4-1.1,0.8-2.3,1.2-3.1c2.9-4.8,5.7-8.3,7.8-9.7
	l0-0.1c0.3,0,0.7,0,1,0c2.4,0,4.4,0,6.2,0.1c-2.1,5.1-2.9,10.8-3.7,16.4c-0.3,2-0.6,4-0.9,5.8c-1.7,0-3.3-0.1-4.9-0.2L407.6,230.7z
	 M432.9,227.6c-0.1,0.7-0.3,1.5-0.5,2.3c-2,0.2-4,0.4-5.9,0.5c0.1-2.9,0.5-6,0.9-8.6c0.2-1.3,0.4-2.5,0.5-4c0.3-2.9,0.7-6.1,1.7-8.1
	c2.1,0.1,4.5,0.2,7.4,0.1l1.2,0l0-0.1c0.3,1.2,0.7,3,1.2,4.5C435.5,216.3,434.4,220.3,432.9,227.6z M449,212.2
	c-1.8,0.1-3.3,0.3-4.7,0.5c-0.3-0.8-0.7-2.2-0.9-3.3c3-0.1,4.5-0.2,5.3-0.4c2.2,0,5-0.1,8-0.2c4.8-0.1,10.1-0.3,15.1-0.3
	c0.3,0.9,0.4,1.9,0.4,2.8C465.2,211.4,456.8,211.7,449,212.2z"/>
<g>
	<path fill="#A67C52" d="M381,128.3l-0.7,0.7c-5.3,1.9-10.4,4.7-15.7,6.8c1.7,6,6.6,16.4,11.2,20.6c6.2,5.6,16.3,0.2,23,4.5
		c3.1-8.9,10.8-20.1,11.8-28.7c-1.3,0.9-12.1,4.8-15,4.8C391.4,137,380.7,130.2,381,128.3z"/>
	<path fill="#A67C52" d="M420.3,130.3L420.3,130.3c-5.7,0.7-4.8,21.6-4.6,27.1c6-2.7,10.7-0.8,11.9-7.7c0.8-4.9-0.5-17.1-3.3-20.8
		C422.7,129.9,421.2,130.6,420.3,130.3z"/>
	<path fill="#A67C52" d="M420.3,130.3l-0.7-0.7C419.8,130,420,130.2,420.3,130.3z"/>
	<path fill="#A67C52" d="M431.7,125.7c-0.7,0.6-1.1,1.5-1.9,2.1c3.2,8.1,6.1,16.3,8.5,24.5c5.6-3.6,18.3-10.5,21.4-15.9L431.7,125.7
		z"/>
</g>
<path fill="#1F120A" d="M375.7,197.3c6.8-14.5,18.4-28.4,35-27.5c-10.7,10.6-22.9,18.2-34.3,27.5 M405.8,190
	c6.6-4,13.6-10.5,20.4-14.5c5.4-3.2,10.8-3.6,14.7-8.2c-7.5,1.2-12-2-18.5,2.2c-7.3,4.7-10.1,13.2-15.3,19.5 M440.5,188.6
	c3.2-4.7,9.5-8.4,14.8-10.1c-1.1-1.9-0.5-6.7-0.8-8.7c0.3-0.3,0.3-0.2,0,0C448.4,173.5,444.1,182.5,440.5,188.6 M454.3,187.7
	c0.2,10,11.2,22.2,14.7,31.8c3-8,9.9-8.6,4.7-17.8c-4-7-10.7-14-18.7-14.7 M493.7,189.2c-0.1-0.2-0.1-0.4-0.4-0.9
	c0.5,17.9-8,33.7-18.9,46.7c-4.5,5.4-6.7,6.3-6.7,12.7c0,5.7,1.3,12.3,2,17.7c-2.3-1.6-5.1-2.5-7.9-2.9c0.5,4.4,1.4,9.1,1.3,13.7
	c-1.4-2-3.3-3.7-5.4-4.8c-0.4,0.3-0.8,0.4-1.2,0.5c-2.4,12-2.9,21.7-1.6,33.8c-5.5-3-12-3.9-17.7-6.5c-0.5,5.5-0.3,7.9-0.5,13.7
	c-2.4-3.4-7.1-5.4-10.9-6.3c0.4,9.6-2.6,18.8-5,27.6c-4.8-4.1-15.6-11.2-17.2-18.3c-1.8,2.8-3.1,6.6-5.4,9.7c-3.9,5.4-3.9,4.9-9.7,4
	c-7.3-1.1-14.7-4.5-21.5-6.8c-0.6-0.1-1-0.2-1.9-0.2c-2.3,2.2-2.7,3.8-3.1,7.1c-3.7-7.8-5.7-27.4-17.7-19.5c-0.6,0.2-0.6,0.2-1-3.5
	c-0.3,10.2,1.4,16.4,4.5,27.1c1.6-8.8,3.3-11.4,7.2-16.3c2.8,6.6,6.4,13.2,8.8,20.2c2.4,7,2.7,13.8,5.9,20.5
	c1.7-6.1,16.9-18,23.2-18.2c2.4,3.5,6.1,6.6,8.8,10c2.7,3.6,4.2,8.1,7.2,11.1c1.8-10.1,3.9-22.7,1.7-33.2c5.3,1.5,9.8,7.8,14,11.7
	c3.3,3.1,5.2,3.3,8.7,6.3c1.6-9.3,1.3-21.8,0.9-31.2c3.8,1.8,8.7,5.2,11.6,8.4c-0.2-6.8,0.7-12,3-18.4c7.7,4.1,11.8,7.2,17,12.6
	c-1-12-3.3-25.5-6.9-36c3.2,5.1,6.4,12.3,8.2,17.8c1.7-8.4,4.5-15,2.8-23.3c3.2,1.3,2.9,5.8,4,9.2c2.4-5.4,3-10.4,2.8-16.6
	c-0.2-5.9-1.5-13-2.2-17.8c2.7,4.3,4.7,10.2,5.2,15.3c6.9-10.7,10.3-27.5,11.8-38.1C492.7,216.9,496.5,200.1,493.7,189.2"/>
<g>
	<path fill="#1F120A" d="M315.8,186.4c4.4,2.6,12,1.8,17,2.3c3.9,0.4,4.3-0.2,6.8,3.3c-4.6-0.5-6.2-0.3-10.7,1.1
		c-3,0.9-6,2.5-8.8,3.9c-2,1-5.3,3.4-7.5,3.3C312.4,197.6,313.2,187.2,315.8,186.4"/>
	<path fill="#1F120A" d="M324.7,211.4c3.8-0.7,6.5-5,10.7-5.2c2.8-0.2,8.4,0.9,9.1,4.3c-4-0.2-8.1,1.2-11.9,2.4
		c-2.9,0.9-7,2.9-9.9,3.1C322.4,214.2,323,212.2,324.7,211.4"/>
	<path fill="#1F120A" d="M322.6,230.6c-0.2-0.2,0.3-0.6,0.2-0.9c2.6-5.3,6.9-8,12.6-9.5c3-0.8,7.8-1.1,10.5,0.5
		c-3.5,2.4-6.9,3.5-11,5C331.3,226.9,325.4,228.1,322.6,230.6"/>
	<path fill="#1F120A" d="M329,244.9c1.2-7,8.2-10.9,14.5-9.1c-0.2,1.2-4,3.7-5.2,4.5C335.6,242.2,332.2,244.1,329,244.9"/>
	<path fill="#1F120A" d="M329.4,278.4c0.5-6.3,6.1-13.7,11.5-17.5c0.9,2.9-0.5,5.4-0.8,8.4c-0.3,2.9-0.1,1.9-0.4,4.8
		C335.3,272.4,332.6,275.1,329.4,278.4"/>
	<path fill="#1F120A" d="M334.9,299.6c-2-4.3,9.8-10.7,13.4-10.9c-1,3.5-0.5,5.7-4.5,7.4c-2.4,1-7.8,1.7-9.1,3.9"/>
</g>
<path fill="#1F120A" d="M442.5,301.2c-6.4-4.5-9-12.6-11.4-19.8c-1-2.9-1.7-2.9-4.9-1.7c-2.4,0.9-5.2,2-6.7,3.9
	c-2.8,3.7-3.9,7.8-8,10.4c-5.1,3.2-12.2,4.1-18.1,5.3c-3,0.6-6.2,1.2-9.2,1.5c0,1.4,0.1,4.8,1,6c1,1.3,3.2,0.9,5,0.7
	c6.5-0.8,14.1-2.2,20.5-0.4c9.3,2.7,11.1,10.9,12.8,18.8c1.1-3.5,2.5-7.5,3.9-11.1c0.9-2.4,1.1-4.4,3.8-3.6c2.3,0.7,4.2,2.9,6.5,3.3
	c0.7-2.8,1.6-5.6,2.3-8.5c0.3-1.3,1.5-5.3,1.2-5.8"/>
<path fill="#1F120A" d="M367.7,323.7c4.8-0.7,0.1-9.5-0.7-11.9c-1.4-4.2,2.2-7.6,5.7-10c0.2,6.4,2.1,15.7,6,21
	c2.3,3.1,6,5.5,8.8,8.1c-4.1,0.7-10.4,2.2-13.4-0.5c-1.3-1.2-2-3-2.9-4.4c-0.5-0.8-2.8-3.1-1.8-2.6"/>
<g>
	<path fill="none" stroke="#000000" stroke-width="2" stroke-miterlimit="10" d="M313.2,200.9C313.2,200.9,313.2,200.8,313.2,200.9
		C313.2,200.8,313.2,200.8,313.2,200.9C312.9,201.1,312.9,201.1,313.2,200.9z"/>
	<path fill="none" stroke="#000000" stroke-width="2" stroke-miterlimit="10" d="M369.3,360c0-0.2,0-0.4,0-0.6
		C369.3,359.7,369.3,359.9,369.3,360z"/>
	<path fill="none" stroke="#000000" stroke-width="2" stroke-miterlimit="10" d="M373.5,201.6c0,0.2-0.1,0.4-0.1,0.6
		C373.4,201.9,373.5,201.8,373.5,201.6z"/>
	<path fill="none" stroke="#000000" stroke-width="2" stroke-miterlimit="10" d="M491.8,184.7c-4.8-6.9-3.3-12.8-8.1-20.1
		c-4.9-7.6-10-17.9-17.3-23.5c-6.8-5.2-15.8-6.6-23.5-10c-10.7-4.7-23.4-9-35.1-10.1c-9.2-0.9-16.4,3.3-24.9,6.3
		c-10,3.5-18.3,7.2-26.7,13.1c-21.2,15-42.2,32.2-42.9,60.3c5.4-3.5,16.5-8.2,23-8.1c-7.1,3.4-11.1,16.9-13.8,24.7
		c3.6-1.3,6.9-3.5,10.8-4.2c-6.8,5.1-8.6,12.9-12.3,19.9c5-5,13-6,19.1-8.8c-6.6,5.4-10.1,15.9-11.5,24c2.8-4.1,8-6.6,12.2-8.8
		c-5.3,2.3-6.2,12.8-7.5,17.8c-2.1,8.3-4.3,16.4-5.4,24.8c1.4-4.6,6.4-6.7,9.8-9.9c-4.7,4.7-5,22.4-2.9,28.4
		c2.6-2.5,5.8-4.4,9.4-4.6c-2.7,9.7-0.9,27.2,3.7,36.4c-0.5-5.5,3.8-13.6,7.6-16.9c2.7,5.6,4.8,12.9,6.7,19.3
		c2.2,7.2,7.1,17.1,7.1,24.7c0.5-5.6,17.1-17.3,22-20c6.2,6.4,11.9,13.9,17.2,21.2c2.1-7.4,5.3-26.2,2.8-32.1l0.7,0.7
		c7.7,4.7,13.1,12.1,21.2,16.5c3.8-9,0.4-22.3,0.9-32.3c3.7,2.2,8.5,7.3,11.7,10.7c-0.4-5.8,0-14.9,2.9-19.7
		c9.7,3.3,9.6,7.5,18.1,13.4c-4.2-10.7-2.5-24.8-7.4-35.7c4.2,4.3,6,11.9,7,17.8c3.2-5.5,5.8-20.5,1.8-26.6c2.6,3.5,5,8.2,5,12.7
		c3.9-10.2,5.1-23.7,1.2-34c3.2,4.3,5.5,10.6,4.8,16.1c8.3-11.9,9.9-26.9,11.9-40.5c1.1-7.6,2.2-14.9,2.6-22.8
		C494.2,197.2,496.3,191.2,491.8,184.7z M418.1,280.3c-4,5.9-15.2,15-21.2,15.8c-6.2,0.9-22,1-26.7-1.5c-10.8-5.7-8.5-19-4.2-27.7
		c0.3,1.2,0.6,2.2,1.8,3c0.1-2.7,0.7-5.6,2.2-7.9c0.9,1.6,2.8,3.1,3.4,4.6c1.5-1.7,2.7-3.8,3.5-6c0.7,2.1,1.7,4.3,2.8,6
		c0.9-1.7,2.7-3.4,3.4-5.3c0.8,2.2,1.9,4.4,3.3,6.4c0.4-1.5,1.8-2.4,2.4-3.8c2.6,2,5.7,4.4,8.7,6c1-2,1.9-4.5,3-6.7
		c2.2,1.2,4.6,3.1,6.6,4.6c1.6-1.8,2.6-3.7,3.1-6C417.3,268,425.1,270,418.1,280.3z M462.2,223.6c-4.4,7.5-3.5,22.2-4.9,30.9
		c-2,12.4-7.9,16.3-13.7,27c-1.9-0.8-4-2.1-6-2.9c-10.5-4.3-6.9-14.8-12.6-23.8c-6.1-9.5-16.2-9.6-26.1-11.2c-9.4-1.5-23-3.1-31.7,2
		c-9.6,5.6-13.3,24.6-12.4,34.9c-10.4-12.9-9-38.9-8.3-54.9c0.5-10.7,2.4-24.6,7.1-34.5c3.8-8,20.8-17.4,30.2-17.2l-0.1,0.2
		c0,0,0,0,0-0.1c-3.5,1.1-9.4,21.5-10.1,27.4c0.9-4.4,11.6-9.8,15.1-13c6.7-6.1,13.8-11.9,21.2-17.2c-0.7,6.6-2.8,14.7-4.8,21.1
		c10.8-11.3,21.7-18.6,35.8-25.2c-1.8,6.8-3.3,16.6-3.9,23.8c7-4.4,10.1-9.5,18-11.7c-0.8,5.2-1.9,6.1-0.4,11
		c1.5,4.9,4.7,9.8,7.1,14.3C465,211.1,473.7,221.3,462.2,223.6z"/>
</g>
</svg>
